PathFileType	4	(X/Y/Z)	./resultDataOpenSim/trcMotMarkerGrf/sub09/qtm-13-05.trc
DataRate	CameraRate	NumFrames	NumMarkers	Units	OrigDataRate	OrigDataStartFrame	OrigNumFrames
250.000000	250.000000	14	24	m	250.000000	316	504
Frame#	Time	L.Toe.Tip			R.Toe.Tip			L.Ankle.Lat			R.Ankle.Lat			L.Ankle.Med			R.Ankle.Med			L.Heel			R.Heel			L.Knee.Lat			R.Knee.Lat			L.Knee.Med			R.Knee.Med			L.Thigh.Upper			R.Thigh.Upper			L.ASIS			R.ASIS			V.Sacral			L.Acromium			R.Acromium			C7			L.Elbow			R.Elbow			L.Wrist.Lat			R.Wrist.Lat
		X1	Y1	Z1	X2	Y2	Z2	X3	Y3	Z3	X4	Y4	Z4	X5	Y5	Z5	X6	Y6	Z6	X7	Y7	Z7	X8	Y8	Z8	X9	Y9	Z9	X10	Y10	Z10	X11	Y11	Z11	X12	Y12	Z12	X13	Y13	Z13	X14	Y14	Z14	X15	Y15	Z15	X16	Y16	Z16	X17	Y17	Z17	X18	Y18	Z18	X19	Y19	Z19	X20	Y20	Z20	X21	Y21	Z21	X22	Y22	Z22	X23	Y23	Z23	X24	Y24	Z24

316	1.26	0.22001594	-0.0031626022	-0.019746568	1.1246704	0.041689375	0.061249964	0.1464996	0.12997463	-0.080560672	0.97581182	0.053126909	0.098480572	0.18497071	0.13124974	0.010010728	0.98248209	0.096782604	0.008222525	0.080078849	0.1554682	-0.029503873	0.90740479	0.031649748	0.051427156	0.45278924	0.42367189	-0.12930101	0.93554083	0.50791802	0.15455955	0.46973009	0.40799531	-0.0058864577	0.92081705	0.4921423	0.030094987	0.59617224	0.80488681	-0.14376159	0.6900233	0.82540653	0.21901583	0.71369339	0.87629814	-0.10948683	0.75400607	0.90392439	0.12751933	0.57102415	0.94949967	0.032433809	0.73887387	1.3430875	-0.13876	0.73159458	1.3510874	0.19389764	0.66878972	1.3989678	0.028902997	0.59109545	0.99899901	-0.21068152	0.56880261	1.0364458	0.28645192	0.78621383	0.81100444	-0.21234764	0.65503808	0.77961334	0.32495686
317	1.264	0.22186238	-0.0016929033	-0.020429724	1.1249363	0.041446398	0.061207463	0.1523021	0.13398111	-0.081850445	0.97625313	0.052992023	0.098121226	0.19120315	0.13443544	0.0085337089	0.9828747	0.096808532	0.0080135785	0.087004145	0.16130399	-0.030561777	0.90752055	0.031671152	0.05135864	0.4629804	0.42274888	-0.13106591	0.94145587	0.50809051	0.15441758	0.48027132	0.40603996	-0.0078336181	0.92714591	0.49305708	0.029649967	0.60397291	0.8046178	-0.1436241	0.69686964	0.8265426	0.21950918	0.72029377	0.876652	-0.10866599	0.7606041	0.90494768	0.1281578	0.57773231	0.95020659	0.032867426	0.74624914	1.3435648	-0.13848581	0.73830885	1.3516274	0.19412972	0.67564748	1.3996092	0.028998686	0.59763622	1.000052	-0.21052769	0.57619228	1.03644	0.28662269	0.79101398	0.81029041	-0.21208381	0.66364586	0.77992931	0.32500218
318	1.268	0.22391796	-2.8167095e-06	-0.02114236	1.1251181	0.041244388	0.060911777	0.15845454	0.13815245	-0.083009371	0.97664942	0.052933179	0.097827728	0.19766408	0.13777872	0.00722379	0.98327145	0.096808858	0.0077823729	0.094253912	0.16730287	-0.031606008	0.90757988	0.031686063	0.051301945	0.4734011	0.4218169	-0.13279457	0.94715604	0.50821159	0.15420274	0.49101158	0.40411225	-0.0097084416	0.93306608	0.49383156	0.029247997	0.61162325	0.80448556	-0.14348502	0.70367087	0.82770467	0.21998497	0.72681453	0.87714014	-0.10791043	0.76712347	0.90589456	0.12876315	0.58440006	0.95099144	0.033355241	0.75354475	1.3441105	-0.1382207	0.74496296	1.3522631	0.1943273	0.68244766	1.4003123	0.029071386	0.60418004	1.0011694	-0.21041811	0.58351371	1.0365244	0.2867635	0.79577963	0.80962071	-0.21183348	0.67224348	0.78035694	0.32502766
319	1.272	0.22621443	0.0019120136	-0.02187492	1.1252148	0.041071026	0.060525536	0.1649702	0.1424538	-0.084025825	0.97688951	0.052973983	0.097647603	0.20433932	0.14127078	0.0060998273	0.98361254	0.09675569	0.0075479125	0.10183838	0.17344336	-0.032622345	0.90758545	0.031692392	0.051252693	0.4840783	0.42086244	-0.13446321	0.952676	0.5082867	0.15395145	0.50190478	0.40223633	-0.011452772	0.93854623	0.49443942	0.028916001	0.61911592	0.80448053	-0.14333274	0.71043086	0.82886808	0.22043999	0.73322658	0.87776556	-0.10722492	0.77357354	0.9067791	0.1293291	0.5910194	0.95184904	0.033880753	0.76074332	1.3447306	-0.13796678	0.75155797	1.352995	0.1944875	0.68919417	1.4010734	0.029124656	0.61071472	1.0023479	-0.21033678	0.59076724	1.0366983	0.28687887	0.80052938	0.80900405	-0.21160409	0.68079872	0.78088705	0.32501208
320	1.276	0.22876947	0.0040383749	-0.022621614	1.1252533	0.040922623	0.060252177	0.17186435	0.14685058	-0.084903811	0.97695958	0.053085047	0.097570056	0.21122806	0.14490445	0.0051533926	0.98386468	0.096662552	0.0073484978	0.10977028	0.17970129	-0.03358655	0.90755667	0.031691884	0.051206621	0.49502299	0.41987583	-0.1360695	0.95802521	0.50833352	0.15373283	0.51298141	0.40041006	-0.013074004	0.94359781	0.49486386	0.028673026	0.62643753	0.80459581	-0.14315354	0.71716595	0.83000676	0.220877	0.73952636	0.8785148	-0.10660536	0.77995849	0.90761514	0.12985052	0.59757538	0.95277823	0.034432214	0.76783726	1.345424	-0.13772305	0.75809882	1.3538172	0.19461407	0.69587284	1.4018901	0.029176815	0.61723605	1.0035793	-0.2102706	0.59795684	1.0369626	0.28697804	0.80527159	0.80844182	-0.21139317	0.68928445	0.78150557	0.32493597
321	1.28	0.23157535	0.0063501367	-0.023382479	1.1252719	0.040806703	0.060148364	0.17914687	0.15131508	-0.085659437	0.97691073	0.05322003	0.097565169	0.2183562	0.14866027	0.0043601651	0.9840317	0.096563774	0.0072173088	0.11805218	0.18605497	-0.034465199	0.90751569	0.031685311	0.051176628	0.50621659	0.41884954	-0.13761562	0.96318423	0.50836458	0.15360919	0.5242591	0.39864509	-0.014602706	0.94826686	0.49510304	0.028527786	0.63357313	0.80482516	-0.14293244	0.72388422	0.8311042	0.22129938	0.74571968	0.87936743	-0.10604369	0.78627074	0.90842023	0.13032455	0.60404076	0.95377758	0.035003066	0.77482109	1.3461848	-0.13748478	0.76459435	1.3547215	0.19471744	0.70245881	1.4027646	0.029252667	0.62374535	1.0048528	-0.21021923	0.60508073	1.0373208	0.28706632	0.80998708	0.80793177	-0.21118301	0.69768747	0.78220649	0.32479026
322	1.284	0.23459841	0.0088220124	-0.024157205	1.1252986	0.040730403	0.060136256	0.18681203	0.15583292	-0.086318167	0.9768019	0.053345792	0.097618912	0.22577617	0.15250212	0.0036962823	0.9841351	0.096486248	0.0071648779	0.12667593	0.19249218	-0.035224083	0.90747733	0.031672737	0.051183917	0.51761883	0.41778427	-0.13908463	0.96812531	0.50837543	0.15359958	0.53569648	0.39701659	-0.016075897	0.95261845	0.49517789	0.028478892	0.64050713	0.80516212	-0.14265157	0.73057296	0.83215725	0.22170503	0.75181322	0.88031228	-0.1055344	0.79249847	0.90922138	0.13075368	0.61035592	0.95483672	0.035590221	0.78168561	1.3470076	-0.13725075	0.77105077	1.3557028	0.19480756	0.70894861	1.4036987	0.029363637	0.6302397	1.0061602	-0.21018735	0.61213194	1.0377766	0.28714336	0.81464471	0.80747709	-0.21095512	0.7060161	0.78299956	0.32458165
323	1.288	0.23779347	0.011443864	-0.024945744	1.1253407	0.040691202	0.060134738	0.19483502	0.16040529	-0.086909606	0.97667466	0.05345122	0.097723602	0.23353243	0.15639568	0.0031445377	0.98420236	0.096440832	0.0071775599	0.13563272	0.19900734	-0.035852898	0.90744747	0.031659097	0.051235174	0.52919165	0.41670333	-0.14044408	0.97283376	0.50834893	0.15367079	0.54728146	0.39562765	-0.017533558	0.9567221	0.49513107	0.028519237	0.64722232	0.80560012	-0.14228786	0.73720358	0.83317332	0.22208713	0.75781517	0.88134694	-0.10507311	0.79863584	0.91005223	0.13114595	0.61640003	0.95594456	0.036195717	0.78842108	1.3478898	-0.13702827	0.77746621	1.3567613	0.19488628	0.71535558	1.4047003	0.029504925	0.63670792	1.007499	-0.21017201	0.61910556	1.0383296	0.28721069	0.81923496	0.80708725	-0.21071222	0.71429505	0.78390441	0.32433152
324	1.292	0.24113165	0.014234912	-0.025764655	1.1253865	0.040675002	0.060128646	0.20318148	0.16504758	-0.087459253	0.97655479	0.053541429	0.097856723	0.24162454	0.16032841	0.0026936153	0.98426988	0.096426148	0.0072247493	0.14492796	0.20559107	-0.03638146	0.90742545	0.031653008	0.051309323	0.54090904	0.41564883	-0.14166411	0.9773039	0.50828563	0.15377769	0.55905701	0.39451214	-0.018945325	0.96063945	0.49501269	0.028632487	0.65370072	0.80613287	-0.14181615	0.74374184	0.83416471	0.2224408	0.76373485	0.88246348	-0.10465381	0.80468145	0.91093871	0.13151036	0.62203551	0.95710467	0.036818257	0.79502232	1.3488312	-0.13682594	0.78383484	1.3578971	0.19495011	0.72169719	1.4057773	0.029656969	0.64313591	1.0088669	-0.21016221	0.62600278	1.0389765	0.28727639	0.8237705	0.80677021	-0.21047422	0.72254555	0.78493295	0.32406431
325	1.296	0.24462296	0.017247741	-0.026652494	1.1254183	0.040663846	0.060130865	0.21182163	0.16977877	-0.087985763	0.97645605	0.05362533	0.097983429	0.2500156	0.16430485	0.0023291406	0.9843777	0.096431094	0.0072710247	0.1545808	0.21222811	-0.036845096	0.90740749	0.031657592	0.051367572	0.5527541	0.41466306	-0.14272402	0.9815421	0.5082203	0.15390845	0.57101179	0.39362933	-0.0201842	0.96440943	0.49486122	0.028789262	0.65993115	0.80675461	-0.14122698	0.75015092	0.83514537	0.22276802	0.76957717	0.88364547	-0.10427323	0.81063508	0.9118893	0.1318508	0.62727978	0.95833416	0.037427397	0.80148624	1.3498315	-0.13664564	0.79015647	1.359105	0.19500011	0.72799009	1.4069284	0.029785047	0.64950612	1.0102574	-0.21014731	0.63282596	1.0397136	0.28735042	0.82826217	0.80653068	-0.2102574	0.73077032	0.78607789	0.32379035
326	1.3	0.24830813	0.020543058	-0.027637595	1.1254304	0.040648919	0.060134123	0.22073113	0.17461168	-0.088504591	0.97638017	0.053705209	0.098075779	0.25866439	0.16833129	0.0020298196	0.98454881	0.096438364	0.0072909318	0.16460463	0.21890696	-0.037225595	0.90738982	0.031668383	0.05137967	0.56471924	0.41377593	-0.14361249	0.98559225	0.50817633	0.15407749	0.5830678	0.39294334	-0.021162633	0.96803988	0.49469112	0.02895542	0.66592462	0.80745915	-0.14056172	0.75638916	0.83613216	0.22307532	0.77534238	0.8848777	-0.1039336	0.81650521	0.91290444	0.13216591	0.63239384	0.95964456	0.037959427	0.80780649	1.3508911	-0.13648724	0.79643845	1.3603771	0.19504127	0.73424691	1.4081489	0.029844685	0.65579558	1.0116592	-0.21011812	0.63956977	1.0405363	0.28743993	0.83271621	0.80637455	-0.21006664	0.73896136	0.78732232	0.32349996
327	1.304	0.25222919	0.024149025	-0.028701814	1.1254271	0.040631457	0.060121136	0.22987934	0.17954471	-0.089016765	0.97632091	0.05377452	0.098126585	0.26754267	0.17240978	0.0017747386	0.98477362	0.096434657	0.0072795694	0.17500015	0.22562196	-0.037462986	0.90736916	0.03168053	0.051343884	0.57679472	0.41299716	-0.14432836	0.98952588	0.50812954	0.15428672	0.59512282	0.39244728	-0.021900508	0.97152649	0.49450244	0.029106123	0.67172362	0.80823733	-0.13993391	0.76241093	0.83714735	0.22336804	0.78103465	0.88615158	-0.10363576	0.82230821	0.91399038	0.13245275	0.63767243	0.9610268	0.038363487	0.81397812	1.3520129	-0.13635477	0.80268538	1.3617086	0.19507352	0.74046938	1.4094365	0.029797777	0.66198404	1.0130614	-0.2100577	0.64622454	1.0414401	0.28754923	0.83715625	0.80630975	-0.20989371	0.74711738	0.78865691	0.3231745
328	1.308	0.25641194	0.028053097	-0.029799042	1.1254103	0.040614567	0.060093759	0.23922328	0.18455345	-0.089490818	0.97627329	0.05382192	0.098146595	0.27663782	0.17653684	0.0015452049	0.98501824	0.096419121	0.0072510012	0.18576149	0.23235967	-0.037531154	0.90734134	0.031691295	0.05128333	0.58895756	0.41232481	-0.14488271	0.99338998	0.50804132	0.15451695	0.60709108	0.39212698	-0.022447411	0.97488145	0.49430613	0.029237938	0.67738983	0.80908141	-0.13946609	0.76817544	0.83821837	0.22364849	0.78666398	0.88746454	-0.10337452	0.82805334	0.91515852	0.1327093	0.64320507	0.96245946	0.03863937	0.82000591	1.3532007	-0.13625389	0.80889055	1.3631011	0.19509163	0.74662366	1.4108068	0.029652652	0.66806241	1.0144668	-0.2099436	0.65278887	1.0424231	0.28767776	0.84163184	0.80634542	-0.20972225	0.75524276	0.79008298	0.32280258
329	1.312	0.26086795	0.032229878	-0.030903998	1.1253764	0.040600565	0.060070626	0.24872323	0.18960663	-0.089883811	0.97623693	0.05383814	0.098152457	0.28595332	0.18070166	0.0013193662	0.98524796	0.096400076	0.007224882	0.19686964	0.23908882	-0.037469388	0.90730151	0.031697644	0.051224007	0.60118736	0.41177592	-0.14531341	0.99717383	0.5078945	0.15475006	0.61900877	0.39195381	-0.022845919	0.97812714	0.4941304	0.029373106	0.68298642	0.80999804	-0.13916507	0.77366283	0.83937271	0.22391935	0.79223876	0.88881843	-0.1031415	0.83373932	0.91641708	0.13293636	0.64891547	0.96392894	0.038821871	0.82590034	1.3544555	-0.13618932	0.81504484	1.3645576	0.19509182	0.75265052	1.4122833	0.029492317	0.67404016	1.0158932	-0.20976938	0.65927408	1.0434844	0.28781826	0.8461772	0.80648933	-0.20954314	0.76333319	0.79160374	0.32238848
